<svg xmlns="http://www.w3.org/2000/svg" viewBox="0 0 64 64" role="img" aria-label="夸夸">
  <defs>
    <linearGradient id="bg" x1="12" y1="10" x2="54" y2="56" gradientUnits="userSpaceOnUse">
      <stop offset="0" stop-color="#ffb86b" />
      <stop offset="1" stop-color="#ff7f96" />
    </linearGradient>
  </defs>
  <rect x="6" y="6" width="52" height="52" rx="18" fill="url(#bg)" />
  <path
    d="M32 19c-4.5-5.5-14-2.7-14 5.4 0 8.2 8.5 13.7 14 19.1 5.5-5.4 14-10.9 14-19.1 0-8.1-9.5-10.9-14-5.4z"
    fill="#fff7fb"
  />
  <path
    d="M23.5 30.5c2.8 0 4.5-2.5 4.5-5.3M40.5 30.5c-2.8 0-4.5-2.5-4.5-5.3"
    fill="none"
    stroke="#b83e63"
    stroke-linecap="round"
    stroke-linejoin="round"
    stroke-width="2.6"
  />
  <path
    d="M24 38c2.3 2.1 5 3.2 8 3.2s5.7-1.1 8-3.2"
    fill="none"
    stroke="#b83e63"
    stroke-linecap="round"
    stroke-width="2.6"
  />
</svg>
